# xmcd
#
# Track frame offsets:
#	150
#	17217
#	35358
#	52715
#	73185
#	91817
#	103592
#	120939
#	138194
#	155774
#	178119
#	194044
#	210845
#	227119
#	244219
#	260005
#	278845
#	295683
#	316057
#	334213
#
# Disc length: 4676 seconds
#
# Revision: 0
# Processed by: cddbd v1.5.1PL2 Copyright (c) Steve Scherf et al.
# Submitted via: audiograbber 1.83.01
#
DISCID=1c124214
DTITLE=diverse Interpreten - 80tien CD 1
DYEAR=1900
DGENRE=
TTITLE0=Jennifer Warnes
TTITLE1=Heaven Is A Place On Earth
TTITLE2=H2O
TTITLE3=I Just Died In Your Arms Tonight
TTITLE4=Gazebo
TTITLE5=Culture Club
TTITLE6=Pointer Sisters
TTITLE7=Freeez
TTITLE8=Always On My Mind
TTITLE9=Pink Project
TTITLE10=Kate Bush
TTITLE11=Bette Davis Eyes
TTITLE12=The J.Geils Band
TTITLE13=Reaction
TTITLE14=Heaven 17
TTITLE15=Patrick Gammon
TTITLE16=Culture Club
TTITLE17=F.Fellini
TTITLE18=Joe Cocker
TTITLE19=Under
EXTD=
EXTT0=
EXTT1=
EXTT2=
EXTT3=
EXTT4=
EXTT5=
EXTT6=
EXTT7=
EXTT8=
EXTT9=
EXTT10=
EXTT11=
EXTT12=
EXTT13=
EXTT14=
EXTT15=
EXTT16=
EXTT17=
EXTT18=
EXTT19=
PLAYORDER=
